<svg width="200px" version="1.1" viewBox="0 0 131.01 138.64" xmlns="http://www.w3.org/2000/svg"><g transform="translate(-21.768 -50.496)"><g stroke="#000"><g transform="translate(-31.3 -17.618)" fill="#74d1fa" stroke-width="2"><path d="m113.67 157.17s-16.126-3.2966-22.88-6.8411c-6.9351-3.6399-10.174-9.8906-12.31-25.154-2.2076-15.771 3.7159-33.925 3.7159-33.925s0.54804-1.2659 5.2394-6.1519c4.6914-4.886 17.001-9.1195 17.001-9.1195s4.2277-1.0015 6.2413-1.468c2.0136-0.46647 10.38-0.98376 12.225-1.0135 0.0234-0.14167 29.424-2.9631 41.554 11.677 5.3609 6.4704 9.9718 15.119 13.003 26.803 2.7976 10.784 4.1618 24.205 5.5684 39.7 0.60557 6.6711-5.1642 15.193-8.8074 20.852-2.3231 3.6085-9.3603 14.657-9.3603 14.657s-6.4284 9.2156-25.538 14.673c-19.11 5.4572-53.436-2.1122-62.768-7.2045-9.332-5.0923-11.387-10.947-11.36-19.18 0.02657-8.2325 5.5391-21.326 22.691-27.229" fill="#74d1fa" stroke="#000" stroke-width="2"/></g><g><g stroke-width="2"><path d="m46.904 74.56c-4.4448 1.179-10.915 5.9948-12.946 10.304-2.0308 4.3096-3.2848 10.694-1.5634 13.437 1.7214 2.7433 8.4125 7.9314 12.194 8.0906 3.7815 0.15923 9.4752-1.4143 12.398-6.097 2.9229-4.6827 4.1862-13.235 1.5981-18.142-2.5882-4.9068-8.0637-7.302-9.5456-7.4827s-2.1351-0.10981-2.1351-0.10981z" fill="#fff"/><path d="m110.55 76.844c-9.5906 1.7012-11.743 1.3158-17.341 8.6087-5.5978 7.2929-4.7004 16.876-2.5117 20.953 2.1887 4.0762 6.5333 10.173 11.475 10.788 4.9417 0.61569 15.576-0.18142 21.236-4.8742s6.5245-17.299 5.3055-21.672-4.6832-13.702-18.164-13.803z" fill="#fff"/><path d="m71.105 106.27c-2.5593-0.73075-3.1207-1.5125-4.7066-0.82255-1.5859 0.68999-4.175 2.9856-4.0384 5.2566s1.7313 4.3782 3.4742 4.8317c1.7428 0.45351 3.4186-0.38151 4.9112-0.41289 1.4926-0.0314 3.7834 0.84725 5.3228 0.74222s4.7014-3.5071 4.8101-5.6028c0.10873-2.0958-2.4315-4.9899-4.1388-5.1168s-2.8288 1.0857-5.6347 1.1245z" fill="#d3bdc0"/></g><path d="m66.559 105.25c-0.91295-1.6033-0.34631-6.0377 4.0791-6.145 4.4254-0.10737 6.3508 3.6583 6.1491 5.2297-0.20164 1.5713-0.0199 0.79138-0.0199 0.79138s-0.93671-0.15636-1.97 0.25378-2.3542 1.0776-3.6927 0.89215c-1.3385-0.18547-4.5457-1.0219-4.5457-1.0219z" fill="#9d96a8" stroke-width="1.6"/></g></g><g fill="#d3bdc0" stroke="#000" stroke-width="2"><path d="m120.3 143.91s-12.168 8.2729-8.2828 12.693c3.8856 4.42 12.46-4.5811 15.262-7.3866"/><path d="m51.336 126.81s-13.338 2.0202-12.723 7.2068c0.2753 2.3231 3.6094 3.3431 4.7932 3.2466 0 0 9.7075-6.1381 13.084-6.2102 0.83104-0.0178-5.1536-4.2432-5.1536-4.2432z"/><path d="m33.967 161.75c-2.5014-0.53661-9.582-3.2694-10.994 1.1508-1.4124 4.4202 4.646 7.4929 7.7888 7.8472 3.1427 0.35429 6.971 0.28948 6.971 0.28948z"/><path d="m77.715 174.41c-5.5891 1.6607-12.49 4.667-13.095 7.4727-0.60033 2.7836-1.07 5.1936 2.3064 5.9663 3.0439 0.69663 9.2243 0.68331 14.743-6.2769"/></g><path d="m119.85 90.244c-1.5944 0.47612-3.9591 2.1712-4.2242 3.0914s-1.6587 3.4909-0.51621 6.9771c1.1425 3.4862 4.6138 4.2437 6.6154 3.9052 2.0016-0.33852 3.7825-3.2122 3.8409-5.5774 0.0584-2.3652-0.28818-4.9626-1.2235-6.1693-0.93534-1.2067-2.6015-2.1088-4.4924-2.227z"/><path d="m32.767 84.544c-1.0616 0.43229-3.6643 1.9493-2.9299 5.287 0.73434 3.3377 2.6724 4.3352 3.8207 4.5484 1.1484 0.21318 3.0855-0.84124 4.0561-3.2235 0.9706-2.3823 0.57104-5.2787-1.1727-6.2071-1.7438-0.92837-2.5821-0.62195-3.7742-0.40475z"/><path d="m130.96 72.007c5.1509-5.0969 10.38-7.3577 13.835-4.808 3.4553 2.5497 8.5651 11.325-6.5236 18.375" fill="#74d1fa" stroke="#000" stroke-width="2"/><path d="m82.946 55.701c0.0293-1.2787 1.2291-2.6594 2.5663-3.5659 0.98153-0.65305 2.4682-0.84967 3.8181-0.34492 1.2607 0.63058 2.4174 1.7216 2.7652 3.1663" fill="#74d1fa" stroke="#000" stroke-width="2"/><ellipse transform="rotate(-39.654)" cx="58.78" cy="148.16" rx="4.0629" ry="1.7218"/><path d="m71.795 115.6 3.6184 0.1626c0.16776 0.0186 0.66238 7.2649-1.9726 6.6757-1.7806-0.39818-1.6451-6.8577-1.6458-6.8383z" fill="#fff" stroke="#000" stroke-width="1.6"/><path d="m67.98 115.63 4.2802 9e-5c0.0383 0.68755 0.73914 6.6052-1.9425 6.6316-2.1163 0.0208-2.291-6.0797-2.291-6.0797z" fill="#fff" stroke="#000" stroke-width="1.6"/><circle cx="118.03" cy="96.479" r="1.0905" fill="#fffffe"/><circle cx="32.618" cy="88.624" r="1.0905" fill="#fffffe"/></g></svg>